<svg xmlns="http://www.w3.org/2000/svg" viewBox="0 0 1200 800" role="img" aria-labelledby="title description">
  <title id="title">Paris landmark test fixture</title>
  <desc id="description">A stylized view of the Eiffel Tower used only for multiplayer timing tests.</desc>
  <defs>
    <linearGradient id="sky" x1="0" y1="0" x2="0" y2="1">
      <stop offset="0" stop-color="#75b9f2"/>
      <stop offset="1" stop-color="#f7d8a8"/>
    </linearGradient>
    <linearGradient id="ground" x1="0" y1="0" x2="0" y2="1">
      <stop offset="0" stop-color="#8ab36d"/>
      <stop offset="1" stop-color="#4e744a"/>
    </linearGradient>
  </defs>
  <rect width="1200" height="800" fill="url(#sky)"/>
  <circle cx="980" cy="145" r="62" fill="#fff1a8" opacity=".9"/>
  <path d="M0 615 C190 565 350 630 540 588 C760 540 920 615 1200 560 V800 H0Z" fill="url(#ground)"/>
  <g fill="#30363d">
    <path d="M600 105 L525 590 H675Z"/>
    <rect x="474" y="585" width="252" height="22" rx="8"/>
    <rect x="515" y="435" width="170" height="18" rx="7"/>
    <rect x="551" y="285" width="98" height="15" rx="6"/>
    <path d="M535 598 C545 505 566 410 600 315 C634 410 655 505 665 598" fill="none" stroke="#30363d" stroke-width="24"/>
    <path d="M552 438 L648 438 M565 360 L635 360 M580 285 L620 285" fill="none" stroke="#f7d8a8" stroke-width="10"/>
  </g>
  <g fill="#355d3a">
    <circle cx="185" cy="585" r="78"/><rect x="173" y="585" width="24" height="112"/>
    <circle cx="1010" cy="570" r="92"/><rect x="995" y="570" width="30" height="127"/>
  </g>
  <text x="36" y="756" font-family="system-ui, sans-serif" font-size="25" fill="#f8fafc">POC timing fixture — original project artwork</text>
</svg>
